<svg xmlns="http://www.w3.org/2000/svg" viewBox="0 0 1280 720">
  <rect width="1280" height="720" fill="#080E18"/>
  <rect x="0" y="0" width="1280" height="4" fill="#0EA5E9"/>
  <text x="80" y="70" font-family="Microsoft YaHei" font-size="30" font-weight="bold" fill="#0EA5E9">目  录</text>
  <rect x="80" y="90" width="1120" height="1" fill="#1E293B"/>

  <!-- 5 TOC items -->
  <rect x="80" y="120" width="1120" height="90" rx="6" fill="#111827"/>
  <text x="130" y="175" font-family="Arial" font-size="28" font-weight="bold" fill="#0EA5E9">01</text>
  <rect x="200" y="155" width="3" height="25" fill="#22D3EE"/>
  <text x="225" y="178" font-family="Microsoft YaHei" font-size="20" font-weight="bold" fill="#CCD6E0">第一章：绪论</text>

  <rect x="80" y="225" width="1120" height="90" rx="6" fill="#111827"/>
  <text x="130" y="280" font-family="Arial" font-size="28" font-weight="bold" fill="#0EA5E9">02</text>
  <rect x="200" y="260" width="3" height="25" fill="#22D3EE"/>
  <text x="225" y="283" font-family="Microsoft YaHei" font-size="20" font-weight="bold" fill="#CCD6E0">第二章：研究背景 — 发展历程与国内外现状</text>

  <rect x="80" y="330" width="1120" height="90" rx="6" fill="#111827"/>
  <text x="130" y="385" font-family="Arial" font-size="28" font-weight="bold" fill="#0EA5E9">03</text>
  <rect x="200" y="365" width="3" height="25" fill="#22D3EE"/>
  <text x="225" y="388" font-family="Microsoft YaHei" font-size="20" font-weight="bold" fill="#CCD6E0">第三章：微纳操作和微纳米机器人的应用现状</text>

  <rect x="80" y="435" width="1120" height="90" rx="6" fill="#111827"/>
  <text x="130" y="490" font-family="Arial" font-size="28" font-weight="bold" fill="#0EA5E9">04</text>
  <rect x="200" y="470" width="3" height="25" fill="#22D3EE"/>
  <text x="225" y="493" font-family="Microsoft YaHei" font-size="20" font-weight="bold" fill="#CCD6E0">第四章：目前所面临的问题</text>

  <rect x="80" y="540" width="1120" height="90" rx="6" fill="#111827"/>
  <text x="130" y="595" font-family="Arial" font-size="28" font-weight="bold" fill="#0EA5E9">05</text>
  <rect x="200" y="575" width="3" height="25" fill="#22D3EE"/>
  <text x="225" y="598" font-family="Microsoft YaHei" font-size="20" font-weight="bold" fill="#CCD6E0">第五章：展望与思考总结</text>

  <text x="1200" y="700" font-family="Microsoft YaHei" font-size="11" fill="#64748B" text-anchor="end">2</text>
  <rect x="0" y="718" width="1280" height="2" fill="#1E293B"/>
</svg>
