<svg xmlns="http://www.w3.org/2000/svg" viewBox="0 0 1280 720">
  <rect width="1280" height="720" fill="#0A0E17"/>
  <rect x="0" y="0" width="1280" height="3" fill="#3B82F6"/>
  <text x="60" y="55" font-family="Microsoft YaHei" font-size="26" font-weight="bold" fill="#FFFFFF">纳米技术的核心价值</text>
  <rect x="60" y="70" width="1160" height="1" fill="#1E293B"/>

  <!-- Left: 核心价值体现 -->
  <rect x="60" y="90" width="560" height="270" rx="6" fill="#131926"/>
  <text x="340" y="130" font-family="Microsoft YaHei" font-size="19" font-weight="bold" fill="#3B82F6" text-anchor="middle">核心价值体现</text>
  <text x="100" y="175" font-family="Microsoft YaHei" font-size="16" font-weight="bold" fill="#FFFFFF">当材料被浓缩至纳米尺度，量子效应占据主导</text>
  <text x="100" y="205" font-family="Microsoft YaHei" font-size="14" fill="#CCCCCC">展现出宏观状态下完全不具备的独特性质</text>
  <rect x="100" y="235" width="230" height="100" rx="4" fill="#1E3A5F"/>
  <text x="215" y="270" font-family="Microsoft YaHei" font-size="15" font-weight="bold" fill="#FFFFFF" text-anchor="middle">结构与性能的飞跃</text>
  <text x="215" y="310" font-family="Microsoft YaHei" font-size="11" fill="#8899AA" text-anchor="middle">极高强度、极强催化活性、优异导电隔热</text>
  <rect x="360" y="235" width="240" height="100" rx="4" fill="#1E3A5F"/>
  <text x="480" y="270" font-family="Microsoft YaHei" font-size="15" font-weight="bold" fill="#FFFFFF" text-anchor="middle">多学科深度交叉</text>
  <text x="480" y="310" font-family="Microsoft YaHei" font-size="11" fill="#8899AA" text-anchor="middle">物理、化学、生物、微电子和材料科学的交汇</text>

  <!-- Right: 已实现的产业化应用 -->
  <rect x="660" y="90" width="560" height="270" rx="6" fill="#131926"/>
  <text x="940" y="130" font-family="Microsoft YaHei" font-size="19" font-weight="bold" fill="#3B82F6" text-anchor="middle">已实现的产业化应用</text>
  <rect x="690" y="160" width="115" height="80" rx="4" fill="#1E3A5F"/>
  <image href="../images/image139.png" x="695" y="165" width="105" height="70" preserveAspectRatio="xMidYMid slice"/>
  <text x="747" y="255" font-family="Microsoft YaHei" font-size="10" fill="#8899AA" text-anchor="middle">智能手机芯片</text>
  <rect x="825" y="160" width="115" height="80" rx="4" fill="#1E3A5F"/>
  <image href="../images/image141.png" x="830" y="165" width="105" height="70" preserveAspectRatio="xMidYMid slice"/>
  <text x="882" y="255" font-family="Microsoft YaHei" font-size="10" fill="#8899AA" text-anchor="middle">汽车轻量化</text>
  <rect x="960" y="160" width="115" height="80" rx="4" fill="#1E3A5F"/>
  <image href="../images/image143.png" x="965" y="165" width="105" height="70" preserveAspectRatio="xMidYMid slice"/>
  <text x="1017" y="255" font-family="Microsoft YaHei" font-size="10" fill="#8899AA" text-anchor="middle">自清洁涂层</text>
  <rect x="1095" y="160" width="105" height="80" rx="4" fill="#1E3A5F"/>
  <image href="../images/image145.png" x="1100" y="165" width="95" height="70" preserveAspectRatio="xMidYMid slice"/>
  <text x="1147" y="255" font-family="Microsoft YaHei" font-size="10" fill="#8899AA" text-anchor="middle">防臭抗菌面料</text>

  <!-- Bottom: 价值说明 -->
  <rect x="60" y="390" width="1160" height="270" rx="6" fill="#131926"/>
  <image href="../images/image147.png" x="100" y="420" width="500" height="220" preserveAspectRatio="xMidYMid slice"/>
  <text x="650" y="450" font-family="Microsoft YaHei" font-size="20" font-weight="bold" fill="#3B82F6">纳米技术 = 在材料本征尺度上重新定义性能</text>
  <text x="650" y="500" font-family="Microsoft YaHei" font-size="15" fill="#CCCCCC">宏观世界中相互矛盾的材料属性 — 强度与韧性、导电与隔热、</text>
  <text x="650" y="530" font-family="Microsoft YaHei" font-size="15" fill="#CCCCCC">硬度与弹性 — 在纳米尺度下可以实现统一与协同优化</text>
  <text x="650" y="580" font-family="Microsoft YaHei" font-size="13" fill="#8899AA">它是凝聚态物理、量子力学、微纳米力学和材料科学深度交叉的制高点</text>

  <text x="1220" y="700" font-family="Microsoft YaHei" font-size="11" fill="#8899AA" text-anchor="end">16</text>
  <rect x="0" y="718" width="1280" height="2" fill="#3B82F6" opacity="0.4"/>
</svg>
