<svg xmlns="http://www.w3.org/2000/svg" viewBox="0 0 1280 720">
  <rect width="1280" height="720" fill="#080E18" />
  <rect x="0" y="0" width="1280" height="4" fill="#F97316" />
  <text x="80" y="55" font-family="Microsoft YaHei" font-size="26" font-weight="bold" fill="#0EA5E9">е…ӯеӨ§йўҶеҹҹдә§дёҡеҢ–жҢ‘жҲҳ</text>
  <rect x="80" y="70" width="1120" height="1" fill="#1E293B" />

  
  <path fill="#111827" d="M86,95 H424 A6,6 0 0 1 430,101 V219 A6,6 0 0 1 424,225 H86 A6,6 0 0 1 80,219 V101 A6,6 0 0 1 86,95 Z" />
  <path fill="#F97316" d="M83,95 H83 A3,3 0 0 1 86,98 V222 A3,3 0 0 1 83,225 H83 A3,3 0 0 1 80,222 V98 A3,3 0 0 1 83,95 Z" />
  <text x="110" y="125" font-family="Microsoft YaHei" font-size="14" font-weight="bold" fill="#F97316">зәізұіеӨҚеҗҲжқҗж–ҷ</text>
  <text x="110" y="150" font-family="Microsoft YaHei" font-size="12" fill="#CCD6E0">еҲҶж•Јеӣ°йҡҫвҶ’еӣўиҒҡвҶ’ејәеәҰдёҚеҚҮеҸҚйҷҚ</text>
  <text x="110" y="172" font-family="Microsoft YaHei" font-size="12" fill="#CCD6E0">еӣһж”¶йҡҫйўҳвҶ’йҷҚзә§дҪҝз”ЁжҲ–з„ҡзғ§</text>

  <path fill="#111827" d="M471,95 H809 A6,6 0 0 1 815,101 V219 A6,6 0 0 1 809,225 H471 A6,6 0 0 1 465,219 V101 A6,6 0 0 1 471,95 Z" />
  <path fill="#F97316" d="M468,95 H468 A3,3 0 0 1 471,98 V222 A3,3 0 0 1 468,225 H468 A3,3 0 0 1 465,222 V98 A3,3 0 0 1 468,95 Z" />
  <text x="495" y="125" font-family="Microsoft YaHei" font-size="14" font-weight="bold" fill="#F97316">еҚҠеҜјдҪ“еҲ¶йҖ </text>
  <text x="495" y="150" font-family="Microsoft YaHei" font-size="12" fill="#CCD6E0">йҮҸеӯҗйҡ§з©ҝвҶ’иҠҜзүҮжјҸз”өеҸ‘зғӯ</text>
  <text x="495" y="172" font-family="Microsoft YaHei" font-size="12" fill="#CCD6E0">зәізұізә§зҒ°е°ҳвҶ’ж•ҙзүҮжҷ¶еңҶжҠҘеәҹ</text>

  <path fill="#111827" d="M856,95 H1194 A6,6 0 0 1 1200,101 V219 A6,6 0 0 1 1194,225 H856 A6,6 0 0 1 850,219 V101 A6,6 0 0 1 856,95 Z" />
  <path fill="#F97316" d="M853,95 H853 A3,3 0 0 1 856,98 V222 A3,3 0 0 1 853,225 H853 A3,3 0 0 1 850,222 V98 A3,3 0 0 1 853,95 Z" />
  <text x="880" y="125" font-family="Microsoft YaHei" font-size="14" font-weight="bold" fill="#F97316">зәізұіж¶ӮеұӮ</text>
  <text x="880" y="150" font-family="Microsoft YaHei" font-size="12" fill="#CCD6E0">иҖҗд№…жҖ§е·®вҶ’зү©зҗҶејәеәҰе…ҲеӨ©дёҚи¶і</text>
  <text x="880" y="172" font-family="Microsoft YaHei" font-size="12" fill="#CCD6E0">з»ҙжҠӨжҲҗжң¬й«ҳвҶ’1-2е№ҙеұҖйғЁеӨұж•Ҳ</text>

  
  <path fill="#111827" d="M86,250 H424 A6,6 0 0 1 430,256 V374 A6,6 0 0 1 424,380 H86 A6,6 0 0 1 80,374 V256 A6,6 0 0 1 86,250 Z" />
  <path fill="#22D3EE" d="M83,250 H83 A3,3 0 0 1 86,253 V377 A3,3 0 0 1 83,380 H83 A3,3 0 0 1 80,377 V253 A3,3 0 0 1 83,250 Z" />
  <text x="110" y="280" font-family="Microsoft YaHei" font-size="14" font-weight="bold" fill="#22D3EE">зәәз»ҮиЎҢдёҡ</text>
  <text x="110" y="305" font-family="Microsoft YaHei" font-size="12" fill="#CCD6E0">з»“еҗҲдёҚзүўвҶ’зәізұійў—зІ’"зІҳ"иҖҢдёҚ"й•ҝ"</text>
  <text x="110" y="327" font-family="Microsoft YaHei" font-size="12" fill="#CCD6E0">жҙ—ж¶ӨжөҒеӨұ+зҺҜеўғйЈҺйҷ©+еҒҘеә·йҡҗжӮЈ</text>

  <path fill="#111827" d="M471,250 H809 A6,6 0 0 1 815,256 V374 A6,6 0 0 1 809,380 H471 A6,6 0 0 1 465,374 V256 A6,6 0 0 1 471,250 Z" />
  <path fill="#22D3EE" d="M468,250 H468 A3,3 0 0 1 471,253 V377 A3,3 0 0 1 468,380 H468 A3,3 0 0 1 465,377 V253 A3,3 0 0 1 468,250 Z" />
  <text x="495" y="280" font-family="Microsoft YaHei" font-size="14" font-weight="bold" fill="#22D3EE">еҲҮеүҠеҲҖе…·</text>
  <text x="495" y="305" font-family="Microsoft YaHei" font-size="12" fill="#CCD6E0">з•ҢйқўеүҘзҰ»вҶ’ж¶ӮеұӮ/еҹәдҪ“еүӘеҲҮеә”еҠӣ</text>
  <text x="495" y="327" font-family="Microsoft YaHei" font-size="12" fill="#CCD6E0">й«ҳжё©еӨұж•ҲвҶ’1000В°CеҶҚз»“жҷ¶/йҖҖзҒ«</text>

  <path fill="#111827" d="M856,250 H1194 A6,6 0 0 1 1200,256 V374 A6,6 0 0 1 1194,380 H856 A6,6 0 0 1 850,374 V256 A6,6 0 0 1 856,250 Z" />
  <path fill="#22D3EE" d="M853,250 H853 A3,3 0 0 1 856,253 V377 A3,3 0 0 1 853,380 H853 A3,3 0 0 1 850,377 V253 A3,3 0 0 1 853,250 Z" />
  <text x="880" y="280" font-family="Microsoft YaHei" font-size="14" font-weight="bold" fill="#22D3EE">з”ҹзү©еҢ»з–—</text>
  <text x="880" y="305" font-family="Microsoft YaHei" font-size="12" fill="#CCD6E0">еҠЁеҠӣдҫӣеә”вҶ’з”өжұ ж— жі•зј©ж”ҫиҮізәізұі</text>
  <text x="880" y="327" font-family="Microsoft YaHei" font-size="12" fill="#CCD6E0">е…Қз–«жё…йҷӨ+йқ¶еҗ‘иҜҶеҲ«+йҖҡдҝЎзӣІеҢә</text>

  
  <path fill="#060E1A" d="M86,420 H1194 A6,6 0 0 1 1200,426 V514 A6,6 0 0 1 1194,520 H86 A6,6 0 0 1 80,514 V426 A6,6 0 0 1 86,420 Z" />
  <text x="120" y="460" font-family="Microsoft YaHei" font-size="16" font-weight="bold" fill="#080E18">е…ұжҖ§ж №жәҗ</text>
  <text x="120" y="495" font-family="Microsoft YaHei" font-size="14" fill="#7C8DB0">зәізұізә§е°әеәҰдёӢзҡ„зү©зҗҶжһҒйҷҗдёҺе·ҘзЁӢжҲҗжң¬еҸҢйҮҚзәҰжқҹ | еҫ®и§ӮжҖ§иғҪдјҳејӮдҪҶе®Ҹи§ӮзҺҜеўғйҖӮй…Қеӣ°йҡҫ | д»Һ"е®һйӘҢе®ӨеҸҜиЎҢ"еҲ°"е·ҘеҺӮеҸҜйқ "зҡ„иҪ¬еҢ–йёҝжІҹ</text>

  
  <path fill="#1A1208" d="M86,545 H424 A6,6 0 0 1 430,551 V649 A6,6 0 0 1 424,655 H86 A6,6 0 0 1 80,649 V551 A6,6 0 0 1 86,545 Z" />
  <rect x="80" y="545" width="350" height="4" fill="#F97316" />
  <text x="255" y="580" font-family="Microsoft YaHei" font-size="15" font-weight="bold" fill="#F97316" text-anchor="middle">йҮҸдә§жҲҗжң¬й«ҳ</text>
  <text x="110" y="610" font-family="Microsoft YaHei" font-size="12" fill="#CCD6E0">й«ҳзәҜеәҰеҺҹж–ҷ+жҳӮиҙөзңҹз©ә/зІҫеҜҶи®ҫеӨҮ</text>
  <text x="110" y="635" font-family="Microsoft YaHei" font-size="12" fill="#CCD6E0">иҙЁжҺ§еҸӘиғҪжҠҪжЈҖпјҢж®Ӣж¬Ўе“ҒжөӘиҙ№е·ЁеӨ§</text>
  <path fill="#1A1208" d="M471,545 H809 A6,6 0 0 1 815,551 V649 A6,6 0 0 1 809,655 H471 A6,6 0 0 1 465,649 V551 A6,6 0 0 1 471,545 Z" />
  <rect x="465" y="545" width="350" height="4" fill="#F97316" />
  <text x="640" y="580" font-family="Microsoft YaHei" font-size="15" font-weight="bold" fill="#F97316" text-anchor="middle">еҫ®вҶ’е®ҸиҝҒз§»йҡҫ</text>
  <text x="495" y="610" font-family="Microsoft YaHei" font-size="12" fill="#CCD6E0">зәізұіе°әеәҰе®ҢзҫҺзү№жҖ§еңЁе®Ҹи§ӮзҺҜеўғдёӯ</text>
  <text x="495" y="635" font-family="Microsoft YaHei" font-size="12" fill="#CCD6E0">жһҒжҳ“еӨұж•ҲпјҢй•ҝжңҹзЁіе®ҡжҖ§йҡҫд»ҘдҝқиҜҒ</text>
  <path fill="#1A1208" d="M856,545 H1194 A6,6 0 0 1 1200,551 V649 A6,6 0 0 1 1194,655 H856 A6,6 0 0 1 850,649 V551 A6,6 0 0 1 856,545 Z" />
  <rect x="850" y="545" width="350" height="4" fill="#F97316" />
  <text x="1025" y="580" font-family="Microsoft YaHei" font-size="15" font-weight="bold" fill="#F97316" text-anchor="middle">жЈҖжөӢжһҒе…¶еӣ°йҡҫ</text>
  <text x="880" y="610" font-family="Microsoft YaHei" font-size="12" fill="#CCD6E0">дә§зәҝй«ҳеҗһеҗҗзҺҮдёӢж— жі•е®һж—¶жЈҖжөӢ</text>
  <text x="880" y="635" font-family="Microsoft YaHei" font-size="12" fill="#CCD6E0">еҮ зәізұіеҺҡзҡ„ж¶ӮеұӮеқҮеҢҖжҖ§</text>

  <text x="1200" y="700" font-family="Microsoft YaHei" font-size="11" fill="#64748B" text-anchor="end">13</text>
  <rect x="0" y="718" width="1280" height="2" fill="#1E293B" />
</svg>